<svg width="939" height="947" viewBox="0 0 939 947" fill="none" xmlns="http://www.w3.org/2000/svg">
<path fill-rule="evenodd" clip-rule="evenodd" d="M544.199 0.773193L553.526 19.1025L579.839 70.8101L624.223 30.4327L634.897 20.7223L640.241 34.1263L668.643 105.361L741.514 95.1023L758.665 92.6878L752.181 108.748L726.939 171.271L799.714 191.888L807.979 194.23L806.911 202.753L797.42 278.469L871.999 309.601L881.568 313.595L877.229 323.014L850.004 382.102L898.116 394.286L913.491 398.18L903.35 410.374L876.982 442.082L927.331 491.453L938.642 502.545L923.763 507.985L879.66 524.111L928.247 587.098L938.707 600.657L921.758 603.103L860.658 611.922L873.093 660.751L876.269 673.219H863.403H775.679V769.185V785.033L761.374 778.211L706.735 752.152L687.096 824.778L682.807 840.64L670.689 829.543L640.953 802.31V822.168V835.415L628.212 831.785L609.39 826.422L614.321 869.277L616.218 885.758L600.758 879.739L508.617 843.86L475.128 893.954L469.082 902.998L460.578 896.214L397.047 845.531L320.774 936.453L312.569 946.233L305.038 935.925L263.679 879.317L228.291 916.141L217.061 927.826L211.654 912.548L181.084 826.174L121.67 852.145L107.374 858.395L107.666 842.795L109.373 751.747H41.7623H25.4531L32.8499 737.212L58.7182 686.379L16.703 680.698L3.89919 678.966L8.78568 667.006L46.9572 573.574L13.7454 557.767L0.268921 551.353L11.3265 541.329L66.5717 491.246L16.2953 435.261L8.74215 426.85L18.0117 420.38L64.5972 387.861L26.544 353.709L13.6298 342.119L30.1331 336.756L103.677 312.859L71.6569 246.541L64.7292 232.193H80.6622H159.095L166.562 170.969L167.935 159.711L178.933 162.483L253.539 181.287L259.485 77.9388L260.45 61.1705L274.732 70.0102L346.586 114.485L362.468 67.728L365.966 57.4291L375.935 61.7785L427.692 84.3586L457.739 19.4376L464.703 4.39116L474.763 17.5703L513.101 67.7957L535.543 19.429L544.199 0.773193ZM468.925 42.8846L441.733 101.636L437.625 110.513L428.659 106.601L377.907 84.4593L361.481 132.82L357.438 144.723L346.749 138.107L278.487 95.8559L272.811 194.515L272.116 206.594L260.383 203.637L185.042 184.648L177.876 243.404L176.804 252.193H167.95H96.5951L126.67 314.481L131.651 324.799L120.755 328.34L52.8169 350.415L87.3415 381.4L96.7271 389.824L86.386 397.042L38.729 430.309L88.1024 485.288L94.7526 492.694L87.3786 499.379L35.8169 546.122L64.0866 559.577L72.621 563.639L69.0463 572.388L32.1866 662.609L75.3607 668.447L89.3233 670.335L82.9331 682.892L58.0715 731.747H119.562H129.751L129.56 741.935L127.955 827.571L182.92 803.544L192.767 799.239L196.352 809.37L225.101 890.597L257.515 856.868L265.77 848.277L272.799 857.898L313.656 913.819L387.995 825.202L394.265 817.727L401.892 823.812L464.547 873.795L496.452 826.071L500.913 819.398L508.394 822.311L592.556 855.082L587.811 813.85L586.101 798.991L600.485 803.089L620.953 808.921V779.592V756.874L637.706 772.217L672.079 803.696L690.56 735.352L693.691 723.773L704.518 728.937L755.679 753.336V663.219V653.219H765.679H850.537L838.532 606.081L835.787 595.304L846.794 593.715L901.952 585.754L855.485 525.516L847.145 514.705L859.969 510.016L902.017 494.641L856.401 449.912L849.823 443.461L855.714 436.378L877.832 409.781L833.433 398.536L821.772 395.583L826.806 384.658L854.725 324.063L782.7 293.997L775.684 291.068L776.63 283.525L785.998 208.789L710.77 187.478L700.053 184.442L704.223 174.113L727.151 117.322L663.656 126.261L655.881 127.355L652.973 120.062L627.008 54.9373L583.602 94.4254L573.905 103.247L567.96 91.5637L545.029 46.5026L524.273 91.2372L517.302 106.261L507.253 93.0959L468.925 42.8846ZM383.819 294.729L383.816 294.736L383.814 294.74L383.813 294.741L378.583 305.775L368.821 298.474L368.812 298.467L368.81 298.466C368.798 298.457 368.776 298.441 368.743 298.418L368.677 298.37C368.539 298.272 368.304 298.107 367.973 297.884C367.311 297.438 366.272 296.763 364.878 295.933C362.088 294.272 357.9 292.004 352.504 289.721C341.698 285.149 326.191 280.577 307.42 280.577C288.47 280.577 259.885 285.929 236.371 301.198C213.378 316.128 195.028 340.572 195.028 380.327C195.028 421.486 210.561 460.693 226.542 490.024C234.488 504.609 242.438 516.557 248.386 524.839C251.358 528.976 253.822 532.187 255.527 534.344C256.379 535.423 257.04 536.237 257.479 536.77C257.699 537.037 257.862 537.233 257.967 537.358C258.019 537.42 258.056 537.464 258.078 537.49L258.097 537.512L258.099 537.515L258.099 537.515L258.101 537.517L264.734 545.282L256.839 551.736L256.835 551.739L256.82 551.751L256.768 551.795C256.696 551.855 256.573 551.96 256.402 552.108C256.06 552.405 255.526 552.878 254.833 553.521C253.445 554.808 251.421 556.772 249.009 559.377C244.174 564.596 237.839 572.32 231.924 582.242C220.114 602.053 210.129 630.329 216.677 665.155C222.861 698.045 244.804 711.672 266.459 717.417C277.426 720.326 288.117 721.105 296.143 721.133C300.133 721.147 303.404 720.975 305.644 720.804C306.763 720.718 307.62 720.633 308.177 720.572C308.455 720.542 308.658 720.518 308.78 720.503L308.861 720.493L308.902 720.487L308.907 720.487C308.904 720.487 308.9 720.488 310.266 730.394C311.632 740.3 311.628 740.301 311.623 740.301L311.612 740.303L311.583 740.307L311.5 740.318C311.435 740.326 311.348 740.338 311.24 740.351C311.023 740.378 310.724 740.413 310.345 740.455C309.588 740.537 308.516 740.643 307.168 740.745C304.476 740.951 300.668 741.149 296.074 741.133C286.934 741.101 274.438 740.225 261.331 736.748C234.835 729.72 205.069 711.652 197.022 668.851C189.338 627.987 201.175 594.766 214.745 572.001C221.52 560.635 228.764 551.802 234.336 545.786C235.257 544.791 236.134 543.872 236.958 543.029C235.548 541.173 233.927 538.991 232.142 536.506C225.816 527.699 217.399 515.047 208.979 499.593C192.227 468.845 175.028 426.212 175.028 380.327C175.028 333.039 197.475 302.608 225.479 284.424C252.962 266.578 285.573 260.577 307.42 260.577C329.447 260.577 347.621 265.939 360.297 271.301C364.485 273.073 368.089 274.852 371.052 276.45C372.39 274.192 373.986 271.607 375.843 268.768C382.484 258.619 392.534 245.128 406.213 231.736C433.593 204.929 475.951 178.148 534.521 180.162C592.128 182.143 633.671 203.944 661.57 235.646C689.262 267.113 702.895 307.608 706.378 346.317C709.76 383.896 708.339 411.906 705.358 431.723C703.298 445.419 700.445 455.515 697.741 462.207C697.96 462.341 698.186 462.479 698.419 462.622L698.42 462.622L698.422 462.623L698.424 462.624C702.083 464.858 707.402 468.106 712.845 472.437C726.886 483.612 742.449 502.36 747.121 536.009C751.953 570.81 735.979 598.018 719.85 615.874C711.749 624.843 703.402 631.705 697.093 636.325C693.929 638.642 691.25 640.415 689.332 641.626C688.372 642.232 687.601 642.698 687.052 643.023C686.778 643.185 686.559 643.312 686.4 643.403C686.32 643.449 686.256 643.486 686.207 643.514L686.144 643.549L686.122 643.561L686.113 643.566C686.109 643.568 686.106 643.57 681.238 634.835C676.37 626.1 676.367 626.102 676.364 626.103L676.363 626.104C676.375 626.097 676.403 626.081 676.445 626.057L676.527 626.01L676.569 625.985L676.65 625.938C676.713 625.902 676.786 625.859 676.868 625.81C677.261 625.578 677.867 625.212 678.655 624.714C680.232 623.719 682.527 622.203 685.277 620.188C690.799 616.145 698.047 610.175 705.008 602.469C719.003 586.974 731.017 565.456 727.311 538.759C723.444 510.91 711.018 496.544 700.391 488.086C696.022 484.61 692.045 482.175 688.426 479.96C687.406 479.336 686.414 478.728 685.45 478.12C683.648 476.984 680.926 475.237 678.975 473.027C677.912 471.823 676.413 469.761 675.859 466.864C675.238 463.612 676.046 460.609 677.508 458.276C678.825 456.176 682.822 447.092 685.581 428.748C688.292 410.72 689.718 384.328 686.459 348.109C683.258 312.548 670.799 276.407 646.556 248.859C622.52 221.547 586.285 201.954 533.834 200.15C482.346 198.38 445.007 221.744 420.204 246.027C407.792 258.18 398.629 270.471 392.58 279.718C389.56 284.333 387.332 288.164 385.876 290.807C385.149 292.128 384.615 293.149 384.273 293.82C384.101 294.156 383.978 294.404 383.903 294.557L383.867 294.629L383.847 294.671L383.825 294.716L383.819 294.729ZM606.039 699.516C579.465 716.777 541.427 736.159 496.038 744.031C451.386 751.775 408.102 751.758 376.082 749.837C360.045 748.875 346.767 747.432 337.471 746.224C332.821 745.62 329.164 745.074 326.651 744.676C325.395 744.477 324.424 744.315 323.758 744.201C323.426 744.144 323.169 744.099 322.991 744.068L322.888 744.049L322.783 744.03L322.723 744.02L322.705 744.016L322.699 744.015C322.696 744.015 322.694 744.014 324.498 734.178C326.302 724.342 326.3 724.342 326.299 724.342L326.303 724.343L326.334 724.348L326.484 724.375L326.566 724.389L326.736 724.419C326.848 724.439 326.981 724.462 327.134 724.488C327.72 724.588 328.608 724.737 329.779 724.922C332.121 725.293 335.595 725.812 340.048 726.39C348.957 727.548 361.77 728.943 377.279 729.873C408.353 731.737 449.985 731.719 492.62 724.325C534.518 717.059 570.01 699.07 595.145 682.743C607.683 674.599 617.56 666.923 624.272 661.312C627.626 658.508 630.184 656.225 631.882 654.664C632.731 653.883 633.365 653.283 633.775 652.89C633.886 652.784 633.98 652.693 634.058 652.618C634.101 652.576 634.139 652.539 634.172 652.507L634.222 652.457L634.318 652.363L634.332 652.35C634.33 652.352 634.328 652.353 641.389 659.434C648.45 666.515 648.448 666.518 648.446 666.52L648.439 666.526L648.423 666.543L648.373 666.592L648.283 666.681L648.208 666.754C648.069 666.89 647.872 667.082 647.618 667.325C647.11 667.812 646.375 668.508 645.419 669.387C643.507 671.144 640.713 673.636 637.1 676.657C629.877 682.694 619.355 690.866 606.039 699.516ZM418.426 462.64C408.459 461.83 408.459 461.828 408.46 461.826L408.456 461.863C408.453 461.907 408.446 461.982 408.436 462.087C408.416 462.296 408.383 462.623 408.336 463.052C408.24 463.912 408.085 465.176 407.854 466.72C407.389 469.833 406.631 473.968 405.466 478.195C404.281 482.492 402.785 486.472 401.003 489.499C399.151 492.646 397.636 493.681 396.897 493.957L403.902 512.69C410.754 510.128 415.287 504.658 418.239 499.645C421.26 494.511 423.322 488.676 424.746 483.512C426.189 478.277 427.092 473.306 427.635 469.678C427.828 468.382 427.978 467.243 428.092 466.305L428.121 466.369C428.574 467.354 429.229 468.734 430.064 470.382C431.724 473.656 434.148 478.091 437.169 482.607C440.15 487.063 443.947 491.955 448.434 495.879C452.816 499.713 458.844 503.483 466.158 503.767L466.906 483.792C466.12 483.761 464.355 483.254 461.604 480.848C458.958 478.533 456.282 475.223 453.801 471.515C451.362 467.868 449.338 464.181 447.914 461.371C447.208 459.978 446.662 458.827 446.3 458.04C446.12 457.648 445.986 457.348 445.901 457.155C445.858 457.059 445.828 456.99 445.811 456.95L445.796 456.915C445.796 456.917 445.797 456.919 436.589 460.814C431.672 462.894 429.381 463.864 428.313 464.317L428.324 464.202C428.332 464.123 428.339 464.05 428.346 463.983C428.36 463.83 428.371 463.707 428.379 463.618L428.389 463.509L428.392 463.473L428.393 463.46L428.393 463.455C428.393 463.453 428.394 463.451 418.426 462.64ZM606.58 525.38L601.403 526.543C601.044 527.482 600.641 528.526 600.2 529.657C598.292 534.559 595.664 541.129 592.812 547.728C591.038 551.831 589.135 556.047 587.228 559.927C588.117 559.695 589.094 559.552 590.155 559.552C593.027 559.552 595.31 560.591 596.623 561.314C598.059 562.105 599.323 563.074 600.362 563.967C602.443 565.756 604.544 568.047 606.512 570.399C610.495 575.159 614.874 581.31 618.848 587.211C622.858 593.165 626.607 599.092 629.345 603.515L629.552 603.849L629.811 604.269C629.924 604.451 630.035 604.631 630.144 604.808L637.45 603.285L641.533 622.863L627.387 625.814L570.545 638.704L406.927 675.81L339.992 690.989L327.658 693.786L323.235 674.281L330.67 672.595C331.077 671.686 331.536 670.667 332.04 669.558C334.126 664.96 336.99 658.781 340.076 652.513C343.141 646.289 346.518 639.786 349.626 634.621C350.876 632.545 352.176 630.526 353.476 628.766C349.093 631.111 344.562 630.464 341.536 629.429C338.252 628.307 335.282 626.308 332.867 624.39C327.939 620.478 322.84 614.874 318.454 609.573C313.977 604.162 309.851 598.586 306.867 594.399C306.566 593.977 306.276 593.568 305.997 593.173L301.396 594.369L296.366 575.012L307.751 572.053L307.912 572.012L308.073 571.975L377.334 556.408L535.78 520.794L591.757 508.212L602.194 505.867L606.58 525.38ZM568.333 579.552C570.077 579.552 571.587 579.156 572.82 578.643C570.718 584.035 568.665 590.3 566.829 596.348C564.524 603.943 562.471 611.505 561 617.146C560.829 617.799 560.667 618.427 560.512 619.027C560.374 619.561 560.243 620.073 560.119 620.561L408.215 655.009C407.785 654.539 407.326 654.039 406.842 653.514C403.611 650.009 399.206 645.329 394.563 640.692C389.97 636.104 384.933 631.345 380.477 627.805C378.284 626.063 375.908 624.354 373.587 623.121C372.429 622.506 370.973 621.84 369.337 621.417C367.808 621.021 365.198 620.594 362.282 621.515C361.712 621.695 361.18 621.911 360.687 622.148C360.777 622.034 360.866 621.921 360.953 621.809C361.006 621.741 361.059 621.672 361.112 621.604C362.88 619.313 364.675 616.62 366.421 613.793C369.919 608.129 373.558 601.371 376.812 594.991C380.083 588.58 383.04 582.4 385.176 577.834C385.69 576.735 386.157 575.728 386.57 574.831L533.249 541.862L533.347 542.015C535.716 545.736 538.964 550.73 542.444 555.749C545.889 560.717 549.714 565.935 553.219 569.994C554.949 571.998 556.834 573.992 558.733 575.57C559.682 576.358 560.859 577.231 562.212 577.949C563.455 578.608 565.614 579.552 568.333 579.552ZM609.423 609.38L582.118 615.572C583.256 611.4 584.567 606.771 585.967 602.156C587.972 595.548 590.089 589.213 592.08 584.336C595.188 588.176 598.753 593.176 602.26 598.383C604.817 602.18 607.277 605.988 609.423 609.38ZM380.429 654.842C382.207 656.618 383.955 658.408 385.614 660.135L355.275 667.015C356.159 665.161 357.079 663.256 358.019 661.348C361.003 655.288 364.089 649.376 366.762 644.934C367.122 644.335 367.465 643.781 367.789 643.27C367.87 643.333 367.952 643.398 368.036 643.465C371.594 646.292 375.997 650.416 380.429 654.842ZM327.1 588.198L361.753 580.409C360.869 582.199 359.945 584.043 358.996 585.903C355.846 592.079 352.489 598.29 349.404 603.284C347.997 605.562 346.717 607.473 345.601 608.961C345.504 608.886 345.405 608.808 345.304 608.727C342.049 606.143 338.015 601.841 333.863 596.823C331.474 593.936 329.169 590.964 327.1 588.198ZM558.881 544.354C557.192 541.918 555.551 539.475 554.045 537.188L577.791 531.85C576.738 534.422 575.613 537.11 574.453 539.793C571.948 545.59 569.373 551.146 567.077 555.399C564.557 552.324 561.706 548.43 558.881 544.354ZM318.804 412.155L381.084 438.044L371.207 461.805L303.625 433.711L261.487 493.552L240.448 478.738L279.28 423.591L217 397.702L226.877 373.941L294.459 402.035L336.597 342.193L357.636 357.008L318.804 412.155ZM555.847 347.422L631 378.663L619.082 407.334L537.53 373.434L486.682 445.645L461.295 427.768L508.153 361.223L433 329.982L444.919 301.31L526.47 335.21L577.318 263L602.705 280.877L555.847 347.422Z" fill="black"/>
</svg>
